<mxfile host="app.diagrams.net" agent="Mozilla/5.0 (Windows NT 10.0; Win64; x64) AppleWebKit/537.36 (KHTML, like Gecko) Chrome/134.0.0.0 Safari/537.36 Edg/134.0.0.0" version="26.2.13">
  <diagram name="Page-1" id="13e1069c-82ec-6db2-03f1-153e76fe0fe0">
    <mxGraphModel dx="780" dy="426" grid="1" gridSize="10" guides="1" tooltips="1" connect="1" arrows="1" fold="1" page="1" pageScale="1" pageWidth="1100" pageHeight="850" background="none" math="0" shadow="0">
      <root>
        <mxCell id="0" />
        <mxCell id="1" parent="0" />
        <mxCell id="7baba1c4bc27f4b0-2" value="meterData:&lt;br&gt;MeterData&lt;div&gt;&lt;br&gt;&lt;/div&gt;" style="shape=umlLifeline;perimeter=lifelinePerimeter;whiteSpace=wrap;html=1;container=1;collapsible=0;recursiveResize=0;outlineConnect=0;rounded=1;shadow=0;comic=0;labelBackgroundColor=none;strokeWidth=1;fontFamily=Verdana;fontSize=12;align=center;" parent="1" vertex="1">
          <mxGeometry x="260" y="170" width="100" height="580" as="geometry" />
        </mxCell>
        <mxCell id="gNATTFsnVFKycc-Ie9Qv-13" value="" style="html=1;points=[[0,0,0,0,5],[0,1,0,0,-5],[1,0,0,0,5],[1,1,0,0,-5]];perimeter=orthogonalPerimeter;outlineConnect=0;targetShapes=umlLifeline;portConstraint=eastwest;newEdgeStyle={&quot;curved&quot;:0,&quot;rounded&quot;:0};" vertex="1" parent="7baba1c4bc27f4b0-2">
          <mxGeometry x="45" y="185" width="10" height="30" as="geometry" />
        </mxCell>
        <mxCell id="gNATTFsnVFKycc-Ie9Qv-14" value="" style="endArrow=block;endFill=1;endSize=12;html=1;rounded=0;" edge="1" parent="7baba1c4bc27f4b0-2" source="7baba1c4bc27f4b0-5">
          <mxGeometry width="160" relative="1" as="geometry">
            <mxPoint x="255.25" y="170" as="sourcePoint" />
            <mxPoint x="54.75" y="170" as="targetPoint" />
          </mxGeometry>
        </mxCell>
        <mxCell id="gNATTFsnVFKycc-Ie9Qv-15" value="" style="endArrow=open;dashed=1;endFill=0;endSize=12;html=1;rounded=0;" edge="1" parent="7baba1c4bc27f4b0-2" target="7baba1c4bc27f4b0-5">
          <mxGeometry width="160" relative="1" as="geometry">
            <mxPoint x="60" y="215" as="sourcePoint" />
            <mxPoint x="220" y="215" as="targetPoint" />
            <Array as="points">
              <mxPoint x="150" y="215" />
            </Array>
          </mxGeometry>
        </mxCell>
        <mxCell id="gNATTFsnVFKycc-Ie9Qv-18" value="" style="html=1;points=[[0,0,0,0,5],[0,1,0,0,-5],[1,0,0,0,5],[1,1,0,0,-5]];perimeter=orthogonalPerimeter;outlineConnect=0;targetShapes=umlLifeline;portConstraint=eastwest;newEdgeStyle={&quot;curved&quot;:0,&quot;rounded&quot;:0};" vertex="1" parent="7baba1c4bc27f4b0-2">
          <mxGeometry x="45" y="280" width="10" height="270" as="geometry" />
        </mxCell>
        <mxCell id="gNATTFsnVFKycc-Ie9Qv-20" value="setReadings_Data(readings)" style="text;html=1;align=center;verticalAlign=middle;resizable=0;points=[];autosize=1;strokeColor=none;fillColor=none;" vertex="1" parent="7baba1c4bc27f4b0-2">
          <mxGeometry x="-110" y="268" width="180" height="30" as="geometry" />
        </mxCell>
        <mxCell id="gNATTFsnVFKycc-Ie9Qv-23" value="" style="html=1;points=[[0,0,0,0,5],[0,1,0,0,-5],[1,0,0,0,5],[1,1,0,0,-5]];perimeter=orthogonalPerimeter;outlineConnect=0;targetShapes=umlLifeline;portConstraint=eastwest;newEdgeStyle={&quot;curved&quot;:0,&quot;rounded&quot;:0};" vertex="1" parent="7baba1c4bc27f4b0-2">
          <mxGeometry x="55" y="330" width="10" height="170" as="geometry" />
        </mxCell>
        <mxCell id="gNATTFsnVFKycc-Ie9Qv-24" value="notify Observers()" style="html=1;align=left;spacingLeft=2;endArrow=block;rounded=0;edgeStyle=orthogonalEdgeStyle;curved=0;rounded=0;" edge="1" target="gNATTFsnVFKycc-Ie9Qv-23" parent="7baba1c4bc27f4b0-2">
          <mxGeometry relative="1" as="geometry">
            <mxPoint x="60" y="310" as="sourcePoint" />
            <Array as="points">
              <mxPoint x="90" y="340" />
            </Array>
          </mxGeometry>
        </mxCell>
        <mxCell id="gNATTFsnVFKycc-Ie9Qv-26" value="" style="endArrow=block;endFill=1;endSize=12;html=1;rounded=0;" edge="1" parent="7baba1c4bc27f4b0-2" target="7baba1c4bc27f4b0-5">
          <mxGeometry width="160" relative="1" as="geometry">
            <mxPoint x="60" y="360" as="sourcePoint" />
            <mxPoint x="220" y="360" as="targetPoint" />
          </mxGeometry>
        </mxCell>
        <mxCell id="gNATTFsnVFKycc-Ie9Qv-28" value="" style="html=1;points=[[0,0,0,0,5],[0,1,0,0,-5],[1,0,0,0,5],[1,1,0,0,-5]];perimeter=orthogonalPerimeter;outlineConnect=0;targetShapes=umlLifeline;portConstraint=eastwest;newEdgeStyle={&quot;curved&quot;:0,&quot;rounded&quot;:0};" vertex="1" parent="7baba1c4bc27f4b0-2">
          <mxGeometry x="65" y="375" width="10" height="45" as="geometry" />
        </mxCell>
        <mxCell id="7baba1c4bc27f4b0-5" value=":AvgDisplay" style="shape=umlLifeline;perimeter=lifelinePerimeter;whiteSpace=wrap;html=1;container=1;collapsible=0;recursiveResize=0;outlineConnect=0;rounded=1;shadow=0;comic=0;labelBackgroundColor=none;strokeWidth=1;fontFamily=Verdana;fontSize=12;align=center;" parent="1" vertex="1">
          <mxGeometry x="520" y="280" width="100" height="580" as="geometry" />
        </mxCell>
        <mxCell id="gNATTFsnVFKycc-Ie9Qv-12" value="" style="html=1;points=[[0,0,0,0,5],[0,1,0,0,-5],[1,0,0,0,5],[1,1,0,0,-5]];perimeter=orthogonalPerimeter;outlineConnect=0;targetShapes=umlLifeline;portConstraint=eastwest;newEdgeStyle={&quot;curved&quot;:0,&quot;rounded&quot;:0};" vertex="1" parent="7baba1c4bc27f4b0-5">
          <mxGeometry x="45" y="40" width="10" height="110" as="geometry" />
        </mxCell>
        <mxCell id="gNATTFsnVFKycc-Ie9Qv-25" value="" style="html=1;points=[[0,0,0,0,5],[0,1,0,0,-5],[1,0,0,0,5],[1,1,0,0,-5]];perimeter=orthogonalPerimeter;outlineConnect=0;targetShapes=umlLifeline;portConstraint=eastwest;newEdgeStyle={&quot;curved&quot;:0,&quot;rounded&quot;:0};" vertex="1" parent="7baba1c4bc27f4b0-5">
          <mxGeometry x="45" y="240" width="10" height="160" as="geometry" />
        </mxCell>
        <mxCell id="gNATTFsnVFKycc-Ie9Qv-35" value="" style="html=1;points=[[0,0,0,0,5],[0,1,0,0,-5],[1,0,0,0,5],[1,1,0,0,-5]];perimeter=orthogonalPerimeter;outlineConnect=0;targetShapes=umlLifeline;portConstraint=eastwest;newEdgeStyle={&quot;curved&quot;:0,&quot;rounded&quot;:0};" vertex="1" parent="7baba1c4bc27f4b0-5">
          <mxGeometry x="50" y="340" width="10" height="40" as="geometry" />
        </mxCell>
        <mxCell id="gNATTFsnVFKycc-Ie9Qv-36" value="display()" style="html=1;align=left;spacingLeft=2;endArrow=block;rounded=0;edgeStyle=orthogonalEdgeStyle;curved=0;rounded=0;" edge="1" target="gNATTFsnVFKycc-Ie9Qv-35" parent="7baba1c4bc27f4b0-5">
          <mxGeometry relative="1" as="geometry">
            <mxPoint x="55" y="320" as="sourcePoint" />
            <Array as="points">
              <mxPoint x="85" y="350" />
            </Array>
          </mxGeometry>
        </mxCell>
        <mxCell id="gNATTFsnVFKycc-Ie9Qv-39" value="" style="html=1;align=left;spacingLeft=2;endArrow=block;rounded=0;edgeStyle=orthogonalEdgeStyle;curved=0;rounded=0;dashed=1;" edge="1" parent="7baba1c4bc27f4b0-5">
          <mxGeometry relative="1" as="geometry">
            <mxPoint x="60" y="370" as="sourcePoint" />
            <Array as="points">
              <mxPoint x="90" y="400" />
            </Array>
            <mxPoint x="57" y="400" as="targetPoint" />
          </mxGeometry>
        </mxCell>
        <mxCell id="7baba1c4bc27f4b0-6" value=":Object" style="shape=umlLifeline;perimeter=lifelinePerimeter;whiteSpace=wrap;html=1;container=1;collapsible=0;recursiveResize=0;outlineConnect=0;rounded=1;shadow=0;comic=0;labelBackgroundColor=none;strokeWidth=1;fontFamily=Verdana;fontSize=12;align=center;" parent="1" vertex="1">
          <mxGeometry x="820" y="80" width="100" height="580" as="geometry" />
        </mxCell>
        <mxCell id="7baba1c4bc27f4b0-7" value=":Object" style="shape=umlLifeline;perimeter=lifelinePerimeter;whiteSpace=wrap;html=1;container=1;collapsible=0;recursiveResize=0;outlineConnect=0;rounded=1;shadow=0;comic=0;labelBackgroundColor=none;strokeWidth=1;fontFamily=Verdana;fontSize=12;align=center;" parent="1" vertex="1">
          <mxGeometry x="960" y="80" width="100" height="580" as="geometry" />
        </mxCell>
        <mxCell id="7baba1c4bc27f4b0-8" value="Client" style="shape=umlLifeline;perimeter=lifelinePerimeter;whiteSpace=wrap;html=1;container=1;collapsible=0;recursiveResize=0;outlineConnect=0;rounded=1;shadow=0;comic=0;labelBackgroundColor=none;strokeWidth=1;fontFamily=Verdana;fontSize=12;align=center;" parent="1" vertex="1">
          <mxGeometry x="100" y="80" width="100" height="750" as="geometry" />
        </mxCell>
        <mxCell id="7baba1c4bc27f4b0-9" value="" style="html=1;points=[];perimeter=orthogonalPerimeter;rounded=0;shadow=0;comic=0;labelBackgroundColor=none;strokeWidth=1;fontFamily=Verdana;fontSize=12;align=center;" parent="7baba1c4bc27f4b0-8" vertex="1">
          <mxGeometry x="45" y="100" width="10" height="600" as="geometry" />
        </mxCell>
        <mxCell id="gNATTFsnVFKycc-Ie9Qv-1" value="" style="endArrow=open;dashed=1;endFill=0;endSize=12;html=1;rounded=0;entryX=-0.07;entryY=0.033;entryDx=0;entryDy=0;entryPerimeter=0;" edge="1" parent="7baba1c4bc27f4b0-8" target="7baba1c4bc27f4b0-2">
          <mxGeometry width="160" relative="1" as="geometry">
            <mxPoint x="60" y="110" as="sourcePoint" />
            <mxPoint x="140" y="110" as="targetPoint" />
          </mxGeometry>
        </mxCell>
        <mxCell id="gNATTFsnVFKycc-Ie9Qv-19" value="" style="endArrow=block;endFill=1;endSize=12;html=1;rounded=0;entryX=0.919;entryY=1.044;entryDx=0;entryDy=0;entryPerimeter=0;" edge="1" parent="7baba1c4bc27f4b0-8" target="gNATTFsnVFKycc-Ie9Qv-20">
          <mxGeometry width="160" relative="1" as="geometry">
            <mxPoint x="55" y="390" as="sourcePoint" />
            <mxPoint x="190" y="390" as="targetPoint" />
          </mxGeometry>
        </mxCell>
        <mxCell id="7baba1c4bc27f4b0-25" value="" style="html=1;points=[];perimeter=orthogonalPerimeter;rounded=0;shadow=0;comic=0;labelBackgroundColor=none;strokeColor=#000000;strokeWidth=1;fillColor=#FFFFFF;fontFamily=Verdana;fontSize=12;fontColor=#000000;align=center;" parent="1" vertex="1">
          <mxGeometry x="1005" y="460" width="10" height="30" as="geometry" />
        </mxCell>
        <mxCell id="7baba1c4bc27f4b0-28" value="" style="html=1;points=[];perimeter=orthogonalPerimeter;rounded=0;shadow=0;comic=0;labelBackgroundColor=none;strokeWidth=1;fontFamily=Verdana;fontSize=12;align=center;" parent="1" vertex="1">
          <mxGeometry x="870" y="550" width="10" height="60" as="geometry" />
        </mxCell>
        <mxCell id="7baba1c4bc27f4b0-45" value="Note" style="shape=note;whiteSpace=wrap;html=1;size=14;verticalAlign=top;align=left;spacingTop=-6;rounded=0;shadow=0;comic=0;labelBackgroundColor=none;strokeWidth=1;fontFamily=Verdana;fontSize=12" parent="1" vertex="1">
          <mxGeometry x="820" y="30" width="100" height="35" as="geometry" />
        </mxCell>
        <mxCell id="7baba1c4bc27f4b0-46" value="Note" style="shape=note;whiteSpace=wrap;html=1;size=14;verticalAlign=top;align=left;spacingTop=-6;rounded=0;shadow=0;comic=0;labelBackgroundColor=none;strokeWidth=1;fontFamily=Verdana;fontSize=12" parent="1" vertex="1">
          <mxGeometry x="960" y="30" width="100" height="35" as="geometry" />
        </mxCell>
        <mxCell id="gNATTFsnVFKycc-Ie9Qv-2" value="create" style="text;html=1;align=center;verticalAlign=middle;resizable=0;points=[];autosize=1;strokeColor=none;fillColor=none;" vertex="1" parent="1">
          <mxGeometry x="160" y="158" width="60" height="30" as="geometry" />
        </mxCell>
        <mxCell id="gNATTFsnVFKycc-Ie9Qv-4" value="create" style="text;html=1;align=center;verticalAlign=middle;resizable=0;points=[];autosize=1;strokeColor=none;fillColor=none;" vertex="1" parent="1">
          <mxGeometry x="170" y="260" width="60" height="30" as="geometry" />
        </mxCell>
        <mxCell id="gNATTFsnVFKycc-Ie9Qv-6" value="new AvgDisplay(meterData)" style="text;html=1;align=center;verticalAlign=middle;resizable=0;points=[];autosize=1;strokeColor=none;fillColor=none;" vertex="1" parent="1">
          <mxGeometry x="310" y="270" width="170" height="30" as="geometry" />
        </mxCell>
        <mxCell id="gNATTFsnVFKycc-Ie9Qv-10" value="" style="endArrow=open;dashed=1;endFill=0;endSize=12;html=1;rounded=0;entryX=0;entryY=0.034;entryDx=0;entryDy=0;entryPerimeter=0;" edge="1" parent="1" source="7baba1c4bc27f4b0-8" target="7baba1c4bc27f4b0-5">
          <mxGeometry width="160" relative="1" as="geometry">
            <mxPoint x="320" y="320" as="sourcePoint" />
            <mxPoint x="510" y="300" as="targetPoint" />
            <Array as="points">
              <mxPoint x="360" y="300" />
            </Array>
          </mxGeometry>
        </mxCell>
        <mxCell id="gNATTFsnVFKycc-Ie9Qv-16" value="addObserver(o:Observer)" style="text;html=1;align=center;verticalAlign=middle;resizable=0;points=[];autosize=1;strokeColor=none;fillColor=none;" vertex="1" parent="1">
          <mxGeometry x="350" y="308" width="160" height="30" as="geometry" />
        </mxCell>
        <mxCell id="gNATTFsnVFKycc-Ie9Qv-17" value="" style="endArrow=open;dashed=1;endFill=0;endSize=12;html=1;rounded=0;" edge="1" parent="1">
          <mxGeometry width="160" relative="1" as="geometry">
            <mxPoint x="569.5" y="430" as="sourcePoint" />
            <mxPoint x="149.5" y="430" as="targetPoint" />
          </mxGeometry>
        </mxCell>
        <mxCell id="gNATTFsnVFKycc-Ie9Qv-27" value="update()" style="text;html=1;align=center;verticalAlign=middle;resizable=0;points=[];autosize=1;strokeColor=none;fillColor=none;" vertex="1" parent="1">
          <mxGeometry x="385" y="498" width="70" height="30" as="geometry" />
        </mxCell>
        <mxCell id="gNATTFsnVFKycc-Ie9Qv-29" value="" style="endArrow=block;endFill=1;endSize=12;html=1;rounded=0;entryX=1;entryY=0;entryDx=0;entryDy=5;entryPerimeter=0;" edge="1" parent="1" source="gNATTFsnVFKycc-Ie9Qv-25" target="gNATTFsnVFKycc-Ie9Qv-28">
          <mxGeometry width="160" relative="1" as="geometry">
            <mxPoint x="370" y="550" as="sourcePoint" />
            <mxPoint x="360" y="570" as="targetPoint" />
          </mxGeometry>
        </mxCell>
        <mxCell id="gNATTFsnVFKycc-Ie9Qv-30" value="getAvgMonth()" style="text;html=1;align=center;verticalAlign=middle;resizable=0;points=[];autosize=1;strokeColor=none;fillColor=none;" vertex="1" parent="1">
          <mxGeometry x="390" y="528" width="100" height="30" as="geometry" />
        </mxCell>
        <mxCell id="gNATTFsnVFKycc-Ie9Qv-32" value="" style="endArrow=open;dashed=1;endFill=0;endSize=12;html=1;rounded=0;" edge="1" parent="1" target="7baba1c4bc27f4b0-5">
          <mxGeometry width="160" relative="1" as="geometry">
            <mxPoint x="330" y="590" as="sourcePoint" />
            <mxPoint x="490" y="590" as="targetPoint" />
          </mxGeometry>
        </mxCell>
        <mxCell id="gNATTFsnVFKycc-Ie9Qv-33" value="getAvgMonth:&lt;span style=&quot;background-color: transparent; color: light-dark(rgb(0, 0, 0), rgb(255, 255, 255));&quot;&gt;Double&lt;/span&gt;" style="text;html=1;align=center;verticalAlign=middle;resizable=0;points=[];autosize=1;strokeColor=none;fillColor=none;" vertex="1" parent="1">
          <mxGeometry x="370" y="565" width="140" height="30" as="geometry" />
        </mxCell>
        <mxCell id="gNATTFsnVFKycc-Ie9Qv-37" value="" style="endArrow=open;dashed=1;endFill=0;endSize=12;html=1;rounded=0;" edge="1" parent="1">
          <mxGeometry width="160" relative="1" as="geometry">
            <mxPoint x="560" y="670" as="sourcePoint" />
            <mxPoint x="320" y="670" as="targetPoint" />
          </mxGeometry>
        </mxCell>
        <mxCell id="gNATTFsnVFKycc-Ie9Qv-38" value="" style="endArrow=block;dashed=1;endFill=0;endSize=12;html=1;rounded=0;entryX=0.3;entryY=0.87;entryDx=0;entryDy=0;entryPerimeter=0;" edge="1" parent="1" source="7baba1c4bc27f4b0-2" target="7baba1c4bc27f4b0-9">
          <mxGeometry width="160" relative="1" as="geometry">
            <mxPoint x="160" y="710" as="sourcePoint" />
            <mxPoint x="320" y="710" as="targetPoint" />
          </mxGeometry>
        </mxCell>
        <mxCell id="gNATTFsnVFKycc-Ie9Qv-40" value="" style="html=1;align=left;spacingLeft=2;endArrow=block;rounded=0;edgeStyle=orthogonalEdgeStyle;curved=0;rounded=0;dashed=1;" edge="1" parent="1">
          <mxGeometry relative="1" as="geometry">
            <mxPoint x="330" y="660" as="sourcePoint" />
            <Array as="points">
              <mxPoint x="360" y="690" />
            </Array>
            <mxPoint x="320" y="690" as="targetPoint" />
          </mxGeometry>
        </mxCell>
      </root>
    </mxGraphModel>
  </diagram>
</mxfile>
